<svg xmlns="http://www.w3.org/2000/svg" width="119.082" height="98.765" viewBox="0 0 119.082 98.765">
  <g id="Page-1" transform="translate(-2 -1.099)">
    <g id="_2.4-marital-status" data-name="2.4-marital-status" transform="translate(-236 -55)">
      <g id="Ad_unit" transform="translate(20)">
        <g id="Icon" transform="translate(218 56)">
          <path id="Shape" d="M40.793,79.6H37.131A12.96,12.96,0,1,0,13.55,68.871,9.451,9.451,0,0,0,1.967,83.16a2.208,2.208,0,0,0,1.747.859H40.793a2.207,2.207,0,0,0,0-4.414Zm-8.941,0H4.926a4.993,4.993,0,0,1-.512-2.215A5.039,5.039,0,0,1,13.2,74.017a2.207,2.207,0,0,0,3.829-1.205A8.547,8.547,0,1,1,31.852,79.6Z" fill="#fff"/>
          <g id="newfolder" transform="translate(20.082)">
            <path id="Shape-2" data-name="Shape" d="M92.2,20.78A6.786,6.786,0,0,0,86.547,23.8l-.9,1.341a8.764,8.764,0,0,1-2.863-1.5,20.476,20.476,0,0,0-12.733-4.459A20.237,20.237,0,0,0,56.94,23.971a6.3,6.3,0,0,0,.79-4.062,6.332,6.332,0,0,0,0-7.818,6.342,6.342,0,0,0-3.916-6.77A6.358,6.358,0,0,0,47.03,1.411a6.506,6.506,0,0,0-7.834,0A6.361,6.361,0,0,0,32.413,5.32a6.328,6.328,0,0,0-3.13,2.712,6.263,6.263,0,0,0-.675,4.516,7.281,7.281,0,0,0-1.463,4.378v3.246a.977.977,0,0,1-.1.44l-1.051,2.1a4.17,4.17,0,0,0,3.739,6.039h1.14a8.559,8.559,0,0,0,3.919,3.885l-6.06,5.185L21.4,31.725a6.049,6.049,0,0,0,.952-3.249,6.116,6.116,0,0,0-10.437-4.314l-.741.74-.741-.74A6.116,6.116,0,0,0,0,28.476a6.051,6.051,0,0,0,1.792,4.314l9.386,9.367,3.279-3.271.009.009L24.82,47.955a6.178,6.178,0,0,0,5.831,1.232,33.05,33.05,0,0,0,3.705,11.223l.363.66c.207.379.447.736.669,1.106l1.244,14.9a11.617,11.617,0,0,0,5.834,9.134l7.356,4.2,2.459,6.137a3.694,3.694,0,0,0,7.07-.763l1.234-7.394a6.591,6.591,0,0,0,.093-1.107,6.733,6.733,0,0,0-3.013-5.618l-6.765-4.5-.437-1.744c.31.135.608.29.923.416l20.47,8.17v4.969a3.522,3.522,0,0,0,6.757,1.383L82.59,81.1A5.46,5.46,0,0,0,80,74.059l-16.134-8.05V62.75A15.045,15.045,0,0,0,52.694,48.222V46.394a14.17,14.17,0,0,1,6.293,2.267l.774.515a20.7,20.7,0,0,0,11.5,3.475A17.879,17.879,0,0,0,81.91,49.109a6.822,6.822,0,0,0,2.66-4.571,17.882,17.882,0,0,0,8.517-3.4,6.813,6.813,0,0,0,2.72-5.427v-.183a6.734,6.734,0,0,0-.286-1.838c.256-.17.515-.338.76-.521A6.814,6.814,0,0,0,99,27.747v-.183A6.8,6.8,0,0,0,92.2,20.78ZM48.56,30.541a6.08,6.08,0,0,0,2.312-.633L49.488,31.29A10.033,10.033,0,0,0,48.56,30.541Zm-15.109-3.89-.364-1.09H29.729a.984.984,0,0,1-.883-1.424l1.051-2.1a4.206,4.206,0,0,0,.442-1.867V16.925a4.112,4.112,0,0,1,4.121-4.113h.472a6.822,6.822,0,0,1,6.631,5.168l.3,1.206h1.247a1.594,1.594,0,1,1,0,3.187v3.187a4.779,4.779,0,0,0,1.225-9.4,10.012,10.012,0,0,0-9.405-6.534H34.46a7.3,7.3,0,0,0-2.642.512,3.34,3.34,0,0,1,.23-.512A3.17,3.17,0,0,1,34.058,8.13L35,7.9l.232-.937a3.157,3.157,0,0,1,1.5-2,3.19,3.19,0,0,1,2.488-.292l.929.271.671-.7a3.245,3.245,0,0,1,4.6,0l.669.7.929-.271A3.168,3.168,0,0,1,51,6.962l.232.937.939.231a3.16,3.16,0,0,1,2.3,3.978l-.271.928.7.669a3.155,3.155,0,0,1,0,4.59l-.7.668.271.928a3.159,3.159,0,0,1-2.3,3.977l-.939.231L51,25.036a3.158,3.158,0,0,1-1.5,2,3.839,3.839,0,0,1-2.747.178L46.145,29.3a9.615,9.615,0,0,0-8.409.975,5.393,5.393,0,0,1-4.285-3.624ZM54.4,26.386l-.878.877a6.177,6.177,0,0,0,.292-.584,6.42,6.42,0,0,0,.586-.293ZM11.177,37.65,4.05,30.536a2.889,2.889,0,0,1-.856-2.06,2.921,2.921,0,0,1,4.985-2.06l3,2.993,3-2.993a2.91,2.91,0,0,1,4.255,3.968,4.252,4.252,0,0,0-.458-.042h-.32a4.743,4.743,0,0,0-4.8,5.632ZM48.1,79.132l7.792,5.185a3.56,3.56,0,0,1,1.591,2.966,3.614,3.614,0,0,1-.048.586L56.2,95.262a.519.519,0,0,1-.954.1l-2.875-7.169L44.05,83.447a8.43,8.43,0,0,1-4.234-6.633L39,67.1a32.977,32.977,0,0,0,7.684,6.387ZM58.985,56.653a11.841,11.841,0,0,1,1.693,6.1v5.228l17.9,8.93a2.268,2.268,0,0,1,1.263,2.038,2.3,2.3,0,0,1-.184.9l-3.977,9.261a.34.34,0,0,1-.629-.128V81.851L52.572,72.877A29.755,29.755,0,0,1,37.523,59.544l-.363-.66a29.819,29.819,0,0,1-3.5-11.5l10.416-7.8-1.916-2.55L30.58,45.7a2.984,2.984,0,0,1-3.657-.139L16.556,36.487a1.681,1.681,0,0,1,1.1-2.958h.32a1.694,1.694,0,0,1,1.078.389l9.7,8.071,9.911-8.477A6.565,6.565,0,0,1,49.5,38.485V50.709l2.183.543A11.8,11.8,0,0,1,58.985,56.653ZM95.806,27.747a3.606,3.606,0,0,1-1.442,2.877,14.665,14.665,0,0,1-8.733,2.9,17.5,17.5,0,0,1-9.729-2.94l-.775-.515a17.375,17.375,0,0,0-9.66-2.919v3.187a14.2,14.2,0,0,1,7.89,2.384l.774.515a20.7,20.7,0,0,0,11.5,3.475,17.878,17.878,0,0,0,6.957-1.422c0,.079.024.157.024.239v.183a3.606,3.606,0,0,1-1.442,2.877,14.665,14.665,0,0,1-8.733,2.9,17.5,17.5,0,0,1-9.729-2.94l-.775-.515a17.375,17.375,0,0,0-9.66-2.919v3.187a14.2,14.2,0,0,1,7.89,2.384l.774.515a20.675,20.675,0,0,0,10.351,3.432,3.6,3.6,0,0,1-1.3,1.917,14.648,14.648,0,0,1-8.732,2.906,17.5,17.5,0,0,1-9.729-2.94l-.775-.515a17.371,17.371,0,0,0-8.065-2.838V38.485A9.653,9.653,0,0,0,51.485,33.8L57.9,27.4a17.094,17.094,0,0,1,12.154-5.025,17.273,17.273,0,0,1,10.738,3.76,12.017,12.017,0,0,0,7.469,2.614h4.35V25.561h-3.4a3.6,3.6,0,0,1,6.6,2Z" fill="#fff"/>
          </g>
        </g>
      </g>
    </g>
  </g>
</svg>
