<svg xmlns="http://www.w3.org/2000/svg" width="67.007" height="32.229" viewBox="0 0 67.007 32.229">
  <g id="Group-20" transform="translate(0)">
    <g id="salad" transform="translate(6.282 0)">
      <path id="Path" d="M60.634.265a9.088,9.088,0,0,0-8.87,11.18,1.741,1.741,0,0,0,1.984.391l.4-.183a1.759,1.759,0,0,1,2.491,1.438l.039.435A1.759,1.759,0,0,0,58.27,15.12l.435.039a1.759,1.759,0,0,1,1.438,2.491l-.183.4a1.684,1.684,0,0,0-.106.405c.258.022.517.039.781.039a9.114,9.114,0,1,0,0-18.227Z" transform="translate(-21.913 -0.265)" fill="#d13834"/>
      <path id="Path-2" data-name="Path" d="M75.845,17.009A9.106,9.106,0,0,1,66.758,25.6c-.263,0-.525-.012-.783-.034a1.739,1.739,0,0,0,.691,1.767l.358.253a1.759,1.759,0,0,1,0,2.876l-.357.252a1.74,1.74,0,0,0-.653.912c.014.016.026.033.041.05H79.611a9.093,9.093,0,0,0-3.766-14.669Z" transform="translate(-28.037 -7.375)" fill="#436b1c"/>
      <path id="Path-3" data-name="Path" d="M62.01,11.768a1.01,1.01,0,0,1-.716-.3L58.429,8.607a1.012,1.012,0,1,1,1.432-1.432l2.865,2.864a1.013,1.013,0,0,1-.716,1.729Z" transform="translate(-24.721 -3.073)" fill="#ed3f32"/>
      <path id="Path-4" data-name="Path" d="M71.966,21.722a1.01,1.01,0,0,1-.716-.3l-2.865-2.864a1.012,1.012,0,0,1,1.432-1.432l2.865,2.864a1.013,1.013,0,0,1-.716,1.729Z" transform="translate(-28.949 -7.3)" fill="#ed3f32"/>
      <path id="Path-5" data-name="Path" d="M69.1,11.768a1.013,1.013,0,0,1-.716-1.729L71.25,7.175a1.012,1.012,0,0,1,1.432,1.432l-2.865,2.864A1.01,1.01,0,0,1,69.1,11.768Z" transform="translate(-28.949 -3.073)" fill="#ed3f32"/>
      <path id="Path-6" data-name="Path" d="M60.025,21.216a1.013,1.013,0,0,1-.716-1.729l2.358-2.357A1.012,1.012,0,0,1,63.1,18.562l-2.358,2.357A1.006,1.006,0,0,1,60.025,21.216Z" transform="translate(-25.094 -7.3)" fill="#ed3f32"/>
      <path id="Path-7" data-name="Path" d="M84.743,30.45H80.693a1.013,1.013,0,1,1,0-2.025h4.051a1.013,1.013,0,0,1,0,2.025Z" transform="translate(-33.871 -12.223)" fill="#659c35"/>
      <path id="Path-8" data-name="Path" d="M77.173,38.021a1.012,1.012,0,0,1-1.013-1.013V32.957a1.013,1.013,0,1,1,2.025,0v4.051A1.012,1.012,0,0,1,77.173,38.021Z" transform="translate(-32.376 -13.717)" fill="#659c35"/>
      <path id="Path-9" data-name="Path" d="M36.331,22.528A1.761,1.761,0,0,1,37.4,24.947l-.183.4a1.759,1.759,0,0,0,.583,2.177l.358.253a1.759,1.759,0,0,1,0,2.876L37.8,30.9a1.755,1.755,0,0,0-.677.963h16.2A1.753,1.753,0,0,1,54,30.9l.357-.252a1.759,1.759,0,0,0,0-2.876L54,27.521a1.76,1.76,0,0,1-.583-2.177l.183-.4a1.759,1.759,0,0,0-1.438-2.491l-.435-.039a1.761,1.761,0,0,1-1.595-1.594l-.039-.435A1.759,1.759,0,0,0,47.6,18.949l-.4.182a1.759,1.759,0,0,1-2.177-.583l-.252-.357a1.759,1.759,0,0,0-2.877,0l-.252.357a1.759,1.759,0,0,1-2.177.583l-.4-.184a1.759,1.759,0,0,0-2.491,1.438l-.039.435a4.122,4.122,0,0,1-.4,1.276A.311.311,0,0,0,36.331,22.528Z" transform="translate(-15.371 -7.56)" fill="#88c057"/>
      <path id="Path-10" data-name="Path" d="M22.847,28.759l-.357-.252a1.759,1.759,0,0,1-.583-2.177l.183-.4a1.759,1.759,0,0,0-1.438-2.491l-.435-.039a1.759,1.759,0,0,1-1.594-1.594l-.039-.435a1.755,1.755,0,0,0-1.766-1.593l-1.881,2.67a3.046,3.046,0,0,1-4.233.733h0a3.049,3.049,0,0,1-1.219-3.116,1.739,1.739,0,0,1-1.523.05l-.4-.184a1.759,1.759,0,0,0-2.491,1.438l-.039.435A1.759,1.759,0,0,1,3.439,23.4L3,23.44a1.759,1.759,0,0,0-1.438,2.491l.183.4A1.759,1.759,0,0,1,1.165,28.5l-.357.252a1.76,1.76,0,0,0,0,2.877l.357.252a1.749,1.749,0,0,1,.676.962H21.813a1.751,1.751,0,0,1,.676-.962l.357-.252A1.757,1.757,0,0,0,22.847,28.759Z" transform="translate(-0.062 -8.547)" fill="#fbd490"/>
      <path id="Path-11" data-name="Path" d="M46.372,28.449a1.013,1.013,0,0,1-.716-1.729L47.175,25.2a1.012,1.012,0,1,1,1.432,1.432l-1.519,1.519A1.01,1.01,0,0,1,46.372,28.449Z" transform="translate(-19.297 -10.728)" fill="#436b1c"/>
      <path id="Path-12" data-name="Path" d="M55.305,33.223a1.01,1.01,0,0,1-.716-.3l-1.013-1.013a1.012,1.012,0,1,1,1.432-1.432l1.013,1.013a1.013,1.013,0,0,1-.716,1.729Z" transform="translate(-22.66 -12.97)" fill="#436b1c"/>
      <path id="Path-13" data-name="Path" d="M47.252,36.743a1.013,1.013,0,0,1-.716-1.729L47.549,34a1.012,1.012,0,0,1,1.432,1.432l-1.013,1.013A1.01,1.01,0,0,1,47.252,36.743Z" transform="translate(-19.671 -14.465)" fill="#436b1c"/>
    </g>
    <path id="Path-14" data-name="Path" d="M62.851,43.971H4.444a4.3,4.3,0,0,1-4.3-4.3V39H67.15v.672A4.3,4.3,0,0,1,62.851,43.971Z" transform="translate(-0.144 -16.713)" fill="#f3b44a"/>
    <path id="Path-15" data-name="Path" d="M61.545,52.611H18.664A3.314,3.314,0,0,1,15.35,49.3V47.64H64.859V49.3A3.314,3.314,0,0,1,61.545,52.611Z" transform="translate(-6.601 -20.382)" fill="#e9aa40"/>
  </g>
</svg>
