<svg xmlns="http://www.w3.org/2000/svg" width="89.339" height="71.656" viewBox="0 0 89.339 71.656">
  <g id="Illustration" transform="translate(-0.05 -0.011)">
    <ellipse id="Ellipse_2" data-name="Ellipse 2" cx="44" cy="2.5" rx="44" ry="2.5" transform="translate(1.178 66.586)" fill="#11447e"/>
    <g id="Group-25" transform="translate(89.389 68.102) rotate(180)">
      <path id="Shape" d="M17.022,68.088V22.413a15.129,15.129,0,0,1-4.716.727C5.515,23.14,0,18.335,0,11.544S5.515,0,12.306,0a12.012,12.012,0,0,1,12.34,12.256V43.974H60.461V22.413a15.122,15.122,0,0,1-4.716.727c-6.791,0-12.306-4.806-12.306-11.6S48.954,0,55.745,0a12.012,12.012,0,0,1,12.34,12.256V68.088Zm43.44-17.022H24.648v9.4H60.462Z" transform="translate(0 0.003)" fill="#c3ccff"/>
      <g id="Group" transform="translate(5.797)" opacity="0.1">
        <path id="Path" d="M52.9,44.795H17.082V13.074A12.014,12.014,0,0,0,4.742.818,13.635,13.635,0,0,0,0,1.65,13.287,13.287,0,0,1,6.512,0a12.012,12.012,0,0,1,12.34,12.256V43.978H52.9Z" transform="translate(0)"/>
        <path id="Path-2" data-name="Path" d="M0,0H1.77V8.58H35.817V9.4H0Z" transform="translate(17.079 51.888)"/>
        <path id="Path-3" data-name="Path" d="M17.082,68.089V13.074A12.014,12.014,0,0,0,4.742.818,13.635,13.635,0,0,0,0,1.65,13.287,13.287,0,0,1,6.512,0a12.012,12.012,0,0,1,12.34,12.256V68.089Z" transform="translate(43.439 0.003)"/>
      </g>
    </g>
    <g id="Group-3" transform="translate(0.483 0.759)">
      <g id="Rectangle" transform="translate(0 17.529)">
        <path id="Path-35" d="M0,1.713l3.613,8.832.724-.289-.6-3.04L4.15,4.338,3.9,3.575l1.258-.419L4.226,0,4.011.108,4,.114Z" transform="matrix(0.934, -0.358, 0.358, 0.934, 0, 41.152)" fill="#2cc4b3" stroke="#707070" stroke-width="0.5" fill-rule="evenodd"/>
        <path id="Path-35-2" data-name="Path-35" d="M0,.024,3.535,8.666l.072-.024L.072,0Z" transform="matrix(0.934, -0.358, 0.358, 0.934, 0.762, 42.746)" fill="#fff" stroke="#707070" stroke-width="0.77" fill-rule="evenodd"/>
        <path id="Path-35-3" data-name="Path-35" d="M0,.661,1.31,3.469l1.122-.321L1.507,0,1.291.108l-.01,0Z" transform="matrix(0.934, -0.358, 0.358, 0.934, 2.539, 40.177)" fill="#e5d1c1" stroke="#707070" stroke-width="0.5" fill-rule="evenodd"/>
        <path id="Path-35-Copy" d="M12.69,63.607l9.543-.041,0-.779-2.982-.563-.073-.031-2.225-1.558-1.072.086.083-3.021-3.28-.322.019.24v.016Z" transform="translate(-3.454 -13.969)" fill="#2cc4b3" stroke="#707070" stroke-width="0.5" fill-rule="evenodd"/>
        <path id="Path-35-4" data-name="Path-35" d="M0,.024,3.535,8.666l.072-.024L.072,0Z" transform="matrix(0.375, -0.927, 0.927, 0.375, 9.318, 49.478)" fill="#fff" stroke="#707070" stroke-width="0.77" fill-rule="evenodd"/>
        <path id="Path-35-Copy-2" data-name="Path-35-Copy" d="M12.665,60.554a11.852,11.852,0,0,0,1.688.18,9.224,9.224,0,0,0,1.534-.169l.074-2.866-3.28-.322.019.24v.017Z" transform="translate(-3.449 -13.969)" fill="#e5d1c1" stroke="#707070" stroke-width="0.5" fill-rule="evenodd"/>
        <path id="Combined-Shape" d="M21.263,12.55,23.97,25.042l-8.8,9.123-.8,11.328h-4.8V39.968L6.858,42.78,3.31,38.606l6.261-6.442V0H21.466ZM15.759,25.8l1.95-2.007-1.461-3.965-.048-.293Z" transform="translate(-1.172)" fill="#e9e9e9" fill-rule="evenodd"/>
        <path id="Path-69" d="M20.374,23.495V22.271l.979-.489" transform="translate(-5.326 -5.303)" fill="none" stroke="#707070" stroke-width="0.5" fill-rule="evenodd"/>
        <path id="Path-2-2" data-name="Path-2" d="M5.241,50.755l2.922,3.339" transform="translate(-1.642 -12.357)" fill="none" stroke="#707070" stroke-width="0.5" fill-rule="evenodd"/>
        <path id="Path-4" data-name="Path" d="M17.042,41.1l-.4,6.261-4.783,3.548V42.77Z" transform="translate(-3.254 -10.006)" fill="#e9e9e9" fill-rule="evenodd"/>
        <rect id="Rectangle_24" data-name="Rectangle 24" width="12.521" height="8.347" transform="translate(7.982 2.087)" fill="#fff"/>
        <path id="Path-3-2" data-name="Path-3" d="M11.585,15.171H22.437" transform="translate(-3.186 -3.694)" fill="none" fill-rule="evenodd"/>
        <path id="Path-8" d="M18.757,43.447l.489-9.053" transform="translate(-4.932 -8.374)" fill="none" stroke="#707070" stroke-width="0.5" fill-rule="evenodd"/>
        <path id="Path-9" d="M11.642,50.151V41.833" transform="translate(-3.2 -10.185)" fill="none" stroke="#707070" stroke-width="0.5" fill-rule="evenodd"/>
      </g>
      <g id="Group-4" transform="translate(23.207 26.711) rotate(180)">
        <path id="Path-27" d="M7.513,1.461Q16.695,0,17.738,0t.835,1.252L18.155,4.8q-1.669,7.721-1.669,8.139t-.626.626l-5.426,1.461L8.973,14.19,7.1,14.817,2.3,12.938a1.254,1.254,0,0,1-.835-.835Q1.252,11.478,0,2.159.617-.13,2.287.288q2.922.835,9.4,2.842l-.835,1.878H2.922" transform="translate(0)" fill="#fefefe" fill-rule="evenodd"/>
        <path id="Path-29" d="M0,2.713a5.269,5.269,0,0,0,2.087,0A8.978,8.978,0,0,1,3.756,2.5V1.878l.626-.417L4.174.835,4.591.417,4.174,0A9.726,9.726,0,0,0,.835.835,7.1,7.1,0,0,1,0,2.713Z" transform="translate(10.852 2.296)" fill="#e5d1c1" fill-rule="evenodd"/>
        <path id="Path-33" d="M0,.626l1.043.835q.417.209.626,0T3.13.209L1.878,0,1.252.626A3.661,3.661,0,0,0,.209.209Q0,.209,0,.626Z" transform="translate(2.257 5.3) rotate(-8)" fill="#e5d1c1" fill-rule="evenodd"/>
        <path id="Path-34" d="M0,.422,1.461.839A1.416,1.416,0,0,0,2.5.422,6.274,6.274,0,0,0,1.461.213,3.075,3.075,0,0,0,.417,0Q.162.041,0,.422Z" transform="translate(2.105 5.288) rotate(-17)" fill="#e5d1c1" fill-rule="evenodd"/>
        <path id="Path-39" d="M0,2.5Q0,0,3.548,0T6.261,2.922" transform="translate(5.843 11.686)" fill="none" fill-rule="evenodd"/>
        <path id="Path-41" d="M0,3.548.417,0" transform="translate(13.982 4.8)" fill="none" fill-rule="evenodd"/>
        <path id="Path-42" d="M0,1.461V0" transform="translate(4.382 6.469)" fill="none" fill-rule="evenodd"/>
      </g>
      <path id="Combined-Shape-2" data-name="Combined-Shape" d="M15.044,6.211V3.862l6.469.209L21.3,4.7q-1.5,4.647-2.087,6.887v1.043l.777.3q.058,1.993-2.238,1.993T15.67,13.044l.417-.209L15.26,7.872a.939.939,0,1,1-.216-1.661Z" transform="translate(-3.724 -0.94)" fill="#e5d1c1" fill-rule="evenodd"/>
      <path id="Path-24" d="M14.418,5.217a3.592,3.592,0,0,0-.506-1.826c-.434-.626.434-1.461.651-1.461.217-.417,0-1.043,1.3-1.252q.651,0,.434.626Q20.869-.783,21.086.47a1.8,1.8,0,0,1-.217.835q.868,0,.868.417a.593.593,0,0,1-.217.417Q22.821,3.182,20,4.017a7.247,7.247,0,0,1-3.982-.245q-.141.4-.558,2.071a1.079,1.079,0,0,0-.417-.626A.511.511,0,0,0,14.418,5.217Z" transform="translate(-3.724 0)" fill="#2cc4b3" fill-rule="evenodd"/>
      <path id="Path-25" d="M22.468,4.689V9.7q0,2.922-2.713,1.878l-1.185-.593" transform="translate(-4.887 -1.142)" fill="#e5d1c1" fill-rule="evenodd"/>
      <path id="Path-43" d="M12.965,81.373h3.756" transform="translate(-3.522 -19.812)" fill="none" stroke="#707070" stroke-width="0.5" fill-rule="evenodd"/>
    </g>
  </g>
</svg>
