<svg xmlns="http://www.w3.org/2000/svg" xmlns:xlink="http://www.w3.org/1999/xlink" width="82.634" height="96.102" viewBox="0 0 82.634 96.102">
  <defs>
    <clipPath id="clip-path">
      <path id="Combined-Shape" d="M48.8,47.3c-1.523-3.89-1.515-2.281-1.832-5.478q-.33-3.33-.891-7.744-.538-2.53-2.345-2.146c-1.807.384-1.5,1.83-1.346,2.553.23,1.084.33,3.33.561,4.414s.452,7.46-1.739,6.037q-2.191-1.423-2.282-8.96l-.714-5.137q-.461-2.169-1.907-1.861a2.487,2.487,0,0,0-1.938,1.545,6.975,6.975,0,0,0,.1,2.246,19.067,19.067,0,0,1,.122,4.13,14.442,14.442,0,0,1-.47,3.122,30.554,30.554,0,0,0,.484,4.053l.461,2.169q-2.291-3.669-3.529-4.161c-.23-1.084-.561-4.414-.714-5.137s-.068-5.652-1.668-6.068-2.015,1.184-2.223,1.984q-.208.8-.6,4.283-.37,5.368.222,6.375a23.55,23.55,0,0,0,1.261,2.377q.515.646-2.191-1.423l-1.392-1.215q-4.482-5.092-5.928-4.785t-1.062,2.115a69.588,69.588,0,0,0,4.713,6.176,6.593,6.593,0,0,0,.634.538H10.506A10.585,10.585,0,0,1,0,36.7L3.184,10.552A10.545,10.545,0,0,1,13.689,0H59.85A10.545,10.545,0,0,1,70.356,10.552L73.539,36.7A10.585,10.585,0,0,1,63.034,47.3Z" transform="translate(0 0)" fill="#2cc4b3"/>
    </clipPath>
  </defs>
  <g id="_3.5-primary-mode-of-listening-to-music" data-name="3.5-primary-mode-of-listening-to-music" transform="translate(-0.099 -1.084)">
    <g id="Group-2-Copy" transform="translate(0 0)">
      <g id="Group" transform="matrix(0.978, 0.208, -0.208, 0.978, 11.755, 0)">
        <path id="Fill-747" d="M11.152,2.284c-5.182,0-8.934,4.149-8.934,9.331V31.621a9.408,9.408,0,0,0,9.4,9.4Q26.036,30.89,34.3,30.89T61.185,41.019a9.408,9.408,0,0,0,9.4-9.4V11.615a9.408,9.408,0,0,0-9.4-9.4Zm25.43,33.607q-8.235,0-24.968,7.345A11.628,11.628,0,0,1,0,31.621V11.615A11.628,11.628,0,0,1,11.614,0H61.185A11.628,11.628,0,0,1,72.8,11.615V31.621A11.628,11.628,0,0,1,61.185,43.236Q44.87,35.891,36.582,35.891Z" transform="translate(0 1.109)" fill="#fff" fill-rule="evenodd"/>
        <path id="Fill-748" d="M0,3.7H51V0H0Z" transform="translate(11.086 0)" fill="#2cc4b3" fill-rule="evenodd"/>
        <g id="Group-761" transform="translate(0.101 9.238)">
          <path id="Combined-Shape-2" data-name="Combined-Shape" d="M48.8,47.3c-1.523-3.89-1.515-2.281-1.832-5.478q-.33-3.33-.891-7.744-.538-2.53-2.345-2.146c-1.807.384-1.5,1.83-1.346,2.553.23,1.084.33,3.33.561,4.414s.452,7.46-1.739,6.037q-2.191-1.423-2.282-8.96l-.714-5.137q-.461-2.169-1.907-1.861a2.487,2.487,0,0,0-1.938,1.545,6.975,6.975,0,0,0,.1,2.246,19.067,19.067,0,0,1,.122,4.13,14.442,14.442,0,0,1-.47,3.122,30.554,30.554,0,0,0,.484,4.053l.461,2.169q-2.291-3.669-3.529-4.161c-.23-1.084-.561-4.414-.714-5.137s-.068-5.652-1.668-6.068-2.015,1.184-2.223,1.984q-.208.8-.6,4.283-.37,5.368.222,6.375a23.55,23.55,0,0,0,1.261,2.377q.515.646-2.191-1.423l-1.392-1.215q-4.482-5.092-5.928-4.785t-1.062,2.115a69.588,69.588,0,0,0,4.713,6.176,6.593,6.593,0,0,0,.634.538H10.506A10.585,10.585,0,0,1,0,36.7L3.184,10.552A10.545,10.545,0,0,1,13.689,0H59.85A10.545,10.545,0,0,1,70.356,10.552L73.539,36.7A10.585,10.585,0,0,1,63.034,47.3Z" transform="translate(0 0)" fill="#2cc4b3"/>
          <g id="Mask_Group_1" data-name="Mask Group 1" clip-path="url(#clip-path)">
            <path id="Combined-Shape-3" data-name="Combined-Shape" d="M37.731,6.652a1.266,1.266,0,0,0-1.424-.585,2.818,2.818,0,0,0-1.263.585H0V5.174H73.539V6.652Zm-3.263.739q-.054.107-.1.221a7.255,7.255,0,0,0-.035,1.257H30.018a1.458,1.458,0,0,0-.863-.9,1.484,1.484,0,0,0-1.855.9H0V7.391Zm3.6,0H73.539V8.869H38.345l-.131-.941A5.417,5.417,0,0,0,38.073,7.391ZM26.925,9.978q-.1.416-.252,1.478H0V9.978Zm3.444,0h4.125a9.623,9.623,0,0,1,.138,1.478H30.6A14.047,14.047,0,0,0,30.368,9.978Zm8.131,0h3.892a2.594,2.594,0,0,0-.027,1.478H38.7Zm7.18,0h27.86v1.478H46.117l-.037-.289A4.694,4.694,0,0,0,45.68,9.978ZM26.528,12.564q-.082.662-.175,1.478H0V12.564Zm4.175,0h3.93c-.008.465-.025.944-.042,1.423q0,.028,0,.055H30.825l0-.01C30.778,13.824,30.754,13.264,30.7,12.564Zm8.156,0h3.682c.055.461.1.975.154,1.478H38.95q-.015-.475-.021-.977Zm7.4,0H73.539v1.478h-27.1Q46.349,13.321,46.256,12.564ZM26.273,15.151q-.045.795-.066,1.478H20.54Q19.033,15.405,18.3,15.56a1.278,1.278,0,0,0-1.113,1.069H0V15.151Zm4.714,0H34.5a14.836,14.836,0,0,1-.26,1.478H31.171C31.107,16.109,31.044,15.593,30.988,15.151Zm8.013,0h3.816c.04.317.084.6.133.837a5.789,5.789,0,0,1,.082.641H39.124Q39.048,15.932,39,15.151Zm7.565,0H73.539v1.478H46.732Q46.653,15.911,46.565,15.151Zm-29.28,2.587q.565.788,1.066,1.478H0V17.738Zm4.49,0h4.414q0,.858.054,1.478h-3.03Q22.441,18.382,21.775,17.738Zm9.537,0h2.854q.063.8.139,1.478H31.641q-.053-.026-.1-.046C31.468,18.848,31.391,18.328,31.312,17.738Zm7.96,0h3.815c.009.465,0,.975-.031,1.478H39.582A14.809,14.809,0,0,1,39.272,17.738Zm7.579,0H73.539v1.478H47q-.015-.145-.031-.3Q46.915,18.341,46.851,17.738ZM19.163,20.325q.613.832,1.106,1.478H0V20.325Zm5.05,0h2.219a1.425,1.425,0,0,0,.121.282,11.936,11.936,0,0,1,.6,1.2H25.941l-.318-.242-1.392-1.215Zm8.712,0h1.528q.072.459.152.838l.136.641h-.679A17.328,17.328,0,0,0,32.925,20.325Zm7.028,0h2.983A4.031,4.031,0,0,1,42.46,21.8H40.922A4.046,4.046,0,0,1,39.952,20.325Zm7.183,0h26.4V21.8H47.645A3.708,3.708,0,0,1,47.136,20.325Zm-26.3,2.217a15.222,15.222,0,0,0,1.113,1.309q.086.084.181.169H0V22.542Zm6.094,0h.582a3.432,3.432,0,0,0,.3.442Q28.178,23.44,26.935,22.542Zm7.626,0H34.9l.168.789Q34.807,22.916,34.561,22.542Zm13.454,0H73.539V24.02H48.656C48.4,23.378,48.188,22.906,48.015,22.542ZM0,1.478V0H73.539V1.478ZM0,4.065V2.587H73.539V4.065Z" transform="translate(0 22.911)" fill="#1b9f90" fill-rule="evenodd"/>
          </g>
        </g>
        <path id="Combined-Shape-4" data-name="Combined-Shape" d="M7.016,25.476q-.046-.364-.093-.736-.538-2.53-2.345-2.146a2.3,2.3,0,0,0-.846.341,13.553,13.553,0,1,1,3.284,2.541Z" transform="translate(39.259 18.577)" fill="#fffffe" fill-rule="evenodd"/>
        <path id="Fill-763" d="M23.771,11.885A11.885,11.885,0,1,1,11.885,0,11.885,11.885,0,0,1,23.771,11.885" transform="translate(40.957 20.275)" fill="#2cc4b3" fill-rule="evenodd"/>
        <path id="Fill-765" d="M14.22,7.11A7.11,7.11,0,1,1,7.11,0a7.11,7.11,0,0,1,7.11,7.11" transform="translate(45.732 25.05)" fill="#fffffe" fill-rule="evenodd"/>
        <path id="Fill-766" d="M4.457,2.229A2.228,2.228,0,1,1,2.229,0,2.229,2.229,0,0,1,4.457,2.229" transform="translate(50.613 29.931)" fill="#fff3f3" fill-rule="evenodd"/>
        <path id="Fill-767" d="M0,4.434H3.7V0H0Z" transform="translate(5.913 25.868)" fill="#1b9f90" fill-rule="evenodd"/>
        <path id="Fill-768" d="M0,4.434H3.7V0H0Z" transform="translate(14.412 25.868)" fill="#1b9f90" fill-rule="evenodd"/>
        <path id="Fill-769" d="M0,4.434H4.434V0H0Z" transform="translate(22.911 25.868)" fill="#1b9f90" fill-rule="evenodd"/>
        <path id="Fill-770" d="M0,4.434H4.065V0H0Z" transform="translate(31.78 25.868)" fill="#1b9f90" fill-rule="evenodd"/>
      </g>
      <g id="Group-2" data-name="Group" transform="translate(18.359 44.951)">
        <path id="Path-15" d="M33.81,32.889v-7.76q-.37-2.956-3.7-4.065c-.739-4.8-1.109-2.956-.739-6.282q.37-3.326.739-7.76,0-2.587-1.848-2.587c-1.848,0-1.848,1.478-1.848,2.217,0,1.109-.37,3.326-.37,4.434s-1.109,7.391-2.956,5.543q-1.848-1.848-.37-9.238l.37-5.174Q23.093,0,21.615,0A2.487,2.487,0,0,0,19.4,1.109a6.975,6.975,0,0,0-.37,2.217,19.068,19.068,0,0,1-.739,4.065,14.443,14.443,0,0,1-1.109,2.956,30.553,30.553,0,0,0-.37,4.065v2.217q-1.478-4.065-2.587-4.8c0-1.109.37-4.434.37-5.174S15.7,1.109,14.224.37s-2.217.739-2.587,1.478q-.37.739-1.478,4.065-1.478,5.174-1.109,6.282a23.55,23.55,0,0,0,.739,2.587q.37.739-1.848-1.848L6.833,11.456Q3.508,5.543,2.03,5.543T.551,7.391a69.589,69.589,0,0,0,3.326,7.021A12.611,12.611,0,0,0,6.464,17l4.065,3.326q2.956,2.587,5.543,4.8c2.587,2.217,4.434,2.956,4.434,6.282a50.736,50.736,0,0,1-1.478,9.978L17.55,46.931l-1.109,4.8H33.071Z" transform="translate(-0.551)" fill="none" stroke="#fff" stroke-width="1"/>
      </g>
    </g>
  </g>
</svg>
