<svg id="Illustration" xmlns="http://www.w3.org/2000/svg" width="30" height="30" viewBox="0 0 30 30">
  <rect id="Rectangle" width="30" height="30" rx="5" fill="#cdb1ff"/>
  <path id="Combined-Shape" d="M10.223,18.345a.85.85,0,0,1,1.553-.69c.76,1.711,1.806,2.5,3.223,2.5s2.463-.784,3.223-2.5a.85.85,0,0,1,1.553.69c-1.017,2.289-2.638,3.5-4.777,3.5S11.241,20.634,10.223,18.345ZM9.944,9a1.944,1.944,0,0,1,1.944,1.944v.111a1.944,1.944,0,1,1-3.889,0v-.111A1.944,1.944,0,0,1,9.944,9ZM20.056,9A1.944,1.944,0,0,1,22,10.944v.111a1.944,1.944,0,0,1-3.889,0v-.111A1.944,1.944,0,0,1,20.056,9Z" fill="#7841db"/>
</svg>
