<svg xmlns="http://www.w3.org/2000/svg" width="37.34" height="35.736" viewBox="0 0 37.34 35.736">
  <path id="Path_253" data-name="Path 253" d="M445.169,691.205a2.3,2.3,0,0,1-1.071-.266l-8.891-4.674a.343.343,0,0,0-.319,0L426,690.939a2.3,2.3,0,0,1-3.332-2.421l1.7-9.9a.342.342,0,0,0-.1-.3l-7.193-7.011a2.3,2.3,0,0,1,1.273-3.917l9.94-1.444a.342.342,0,0,0,.258-.187l4.445-9.007a2.3,2.3,0,0,1,4.118,0l4.445,9.007a.342.342,0,0,0,.258.187l9.94,1.444a2.3,2.3,0,0,1,1.273,3.917l-7.193,7.011a.342.342,0,0,0-.1.3l1.7,9.9a2.3,2.3,0,0,1-2.261,2.687Zm-10.121-6.934a2.3,2.3,0,0,1,1.069.264l8.891,4.674a.342.342,0,0,0,.5-.361l-1.7-9.9a2.3,2.3,0,0,1,.66-2.033l7.193-7.011a.342.342,0,0,0-.19-.584l-9.94-1.444a2.3,2.3,0,0,1-1.729-1.256l-4.445-9.007a.342.342,0,0,0-.614,0l-4.445,9.007a2.3,2.3,0,0,1-1.729,1.256l-9.94,1.444a.342.342,0,0,0-.19.584l7.193,7.011a2.3,2.3,0,0,1,.66,2.033l-1.7,9.9a.342.342,0,0,0,.5.361l8.891-4.674A2.3,2.3,0,0,1,435.048,684.272Z" transform="translate(-416.378 -655.469)" fill="#fff"/>
</svg>
